<svg id="Layer_1" data-name="Layer 1" xmlns="http://www.w3.org/2000/svg" viewBox="0 0 500 350.5">
    <rect y="0.5" width="50" height="350" fill="#ecc600"/>
    <rect x="450" y="0.5" width="50" height="350" fill="#ecc600"/>
    <rect x="50.5" width="400" height="350.5" fill="#e7d48c"/>
    <text transform="translate(35.46 281.22) rotate(-90)" font-size="40" fill="#fff" stroke="#000"
          stroke-miterlimit="10" stroke-width="0.25" font-family="SourceSansPro-Regular, Source Sans Pro">30 SE
        <tspan x="90.2" y="0" letter-spacing="-0.03em">C</tspan>
        <tspan x="111.88" y="0">ONDS</tspan>
    </text>
    <text transform="translate(464.54 69.78) rotate(90)" font-size="40" fill="#fff" stroke="#000" stroke-miterlimit="10"
          stroke-width="0.25" font-family="SourceSansPro-Regular, Source Sans Pro">30 SE
        <tspan x="90.2" y="0" letter-spacing="-0.03em">C</tspan>
        <tspan x="111.88" y="0">ONDS</tspan>
    </text>
    <text transform="translate(68.46 53.8)" font-size="25" font-family="SourceSansPro-Regular, Source Sans Pro">
        <tspan letter-spacing="-0.03em">L</tspan>
        <tspan x="11.5" y="0">OREM I</tspan>
        <tspan x="85.27" y="0" letter-spacing="-0.01em">P</tspan>
        <tspan x="99.2" y="0">SUM DO</tspan>
        <tspan x="183.87" y="0" letter-spacing="-0.03em">L</tspan>
        <tspan x="195.37" y="0">OR SIT AME</tspan>
        <tspan x="314.5" y="0" letter-spacing="-0.11em">T</tspan>
        <tspan x="325.25" y="0">,</tspan>
    </text>
    <text transform="translate(68.46 120.3)" font-size="25" font-family="SourceSansPro-Regular, Source Sans Pro">
        <tspan letter-spacing="-0.03em">L</tspan>
        <tspan x="11.5" y="0">OREM I</tspan>
        <tspan x="85.27" y="0" letter-spacing="-0.01em">P</tspan>
        <tspan x="99.2" y="0">SUM DO</tspan>
        <tspan x="183.87" y="0" letter-spacing="-0.03em">L</tspan>
        <tspan x="195.37" y="0">OR SIT AME</tspan>
        <tspan x="314.5" y="0" letter-spacing="-0.11em">T</tspan>
        <tspan x="325.25" y="0">,</tspan>
    </text>
    <text transform="translate(68.46 186.8)" font-size="25" font-family="SourceSansPro-Regular, Source Sans Pro">
        <tspan letter-spacing="-0.03em">L</tspan>
        <tspan x="11.5" y="0">OREM I</tspan>
        <tspan x="85.27" y="0" letter-spacing="-0.01em">P</tspan>
        <tspan x="99.2" y="0">SUM DO</tspan>
        <tspan x="183.87" y="0" letter-spacing="-0.03em">L</tspan>
        <tspan x="195.37" y="0">OR SIT AME</tspan>
        <tspan x="314.5" y="0" letter-spacing="-0.11em">T</tspan>
        <tspan x="325.25" y="0">,</tspan>
    </text>
    <text transform="translate(68.46 253.3)" font-size="25" font-family="SourceSansPro-Regular, Source Sans Pro">
        <tspan letter-spacing="-0.03em">L</tspan>
        <tspan x="11.5" y="0">OREM I</tspan>
        <tspan x="85.27" y="0" letter-spacing="-0.01em">P</tspan>
        <tspan x="99.2" y="0">SUM DO</tspan>
        <tspan x="183.87" y="0" letter-spacing="-0.03em">L</tspan>
        <tspan x="195.37" y="0">OR SIT AME</tspan>
        <tspan x="314.5" y="0" letter-spacing="-0.11em">T</tspan>
        <tspan x="325.25" y="0">,</tspan>
    </text>
    <text transform="translate(68.46 319.8)" font-size="25" font-family="SourceSansPro-Regular, Source Sans Pro">
        <tspan letter-spacing="-0.03em">L</tspan>
        <tspan x="11.5" y="0">OREM I</tspan>
        <tspan x="85.27" y="0" letter-spacing="-0.01em">P</tspan>
        <tspan x="99.2" y="0">SUM DO</tspan>
        <tspan x="183.87" y="0" letter-spacing="-0.03em">L</tspan>
        <tspan x="195.37" y="0">OR SIT AME</tspan>
        <tspan x="314.5" y="0" letter-spacing="-0.11em">T</tspan>
        <tspan x="325.25" y="0">,</tspan>
    </text>
</svg>
